<svg id="Layer_1" enable-background="new 0 0 512 512" height="512" viewBox="0 0 512 512" width="512" xmlns="http://www.w3.org/2000/svg"><g><path d="m185.529 245.085c-2.451-3.339-7.145-4.059-10.484-1.609-8.44 6.194-17.732 11.007-27.616 14.304-1.87.624-3.418 1.958-4.312 3.714l-27.488 54.044-27.489-54.044c-.894-1.756-2.442-3.091-4.312-3.714-41.168-13.732-68.828-52.165-68.828-95.637 0-55.584 45.142-100.805 100.628-100.805s100.628 45.221 100.628 100.805c0 21.447-6.635 41.918-19.189 59.201-2.434 3.352-1.69 8.042 1.661 10.476 3.352 2.434 8.042 1.69 10.476-1.661 14.427-19.862 22.052-43.382 22.052-68.017 0-63.855-51.871-115.805-115.628-115.805-63.757.001-115.628 51.951-115.628 115.806 0 48.895 30.465 92.242 76.138 108.84l32.806 64.499c1.28 2.516 3.863 4.1 6.685 4.1s5.405-1.584 6.685-4.1l32.806-64.5c10.268-3.737 19.944-8.914 28.8-15.414 3.339-2.45 4.059-7.144 1.609-10.483z"/><path d="m140.587 216.152c4.142 0 7.5-3.358 7.5-7.5v-75c0-17.92-14.561-32.5-32.459-32.5s-32.459 14.58-32.459 32.5v75c0 4.142 3.358 7.5 7.5 7.5s7.5-3.358 7.5-7.5v-42.5h34.918v42.5c0 4.142 3.358 7.5 7.5 7.5zm-42.418-65v-17.5c0-9.649 7.833-17.5 17.459-17.5s17.459 7.851 17.459 17.5v17.5z"/><path d="m485.597 89.157c-2.632-3.197-7.358-3.652-10.558-1.019-3.196 2.634-3.652 7.36-1.019 10.557 14.819 17.985 22.98 40.758 22.98 64.123 0 43.472-27.66 81.906-68.828 95.637-1.869.624-3.419 1.958-4.312 3.715l-27.488 54.044-27.489-54.045c-.893-1.756-2.442-3.091-4.312-3.714-41.168-13.731-68.828-52.165-68.828-95.637 0-55.584 45.142-100.805 100.629-100.805 19.074 0 37.635 5.367 53.676 15.521 3.498 2.214 8.132 1.175 10.349-2.326 2.216-3.5 1.175-8.133-2.325-10.348-18.445-11.676-39.78-17.848-61.699-17.848-63.758 0-115.629 51.95-115.629 115.805 0 48.895 30.465 92.242 76.138 108.84l32.807 64.5c1.279 2.515 3.862 4.1 6.685 4.1s5.405-1.584 6.685-4.1l32.806-64.499c45.67-16.597 76.135-59.945 76.135-108.84 0-26.837-9.377-52.997-26.403-73.661z"/><path d="m431.826 134.327c0-17.92-14.561-32.5-32.459-32.5h-24.96c-4.143 0-7.5 3.358-7.5 7.5v100c0 4.142 3.357 7.5 7.5 7.5h24.96c17.898 0 32.459-14.58 32.459-32.5 0-10.042-4.574-19.034-11.744-25 7.17-5.967 11.744-14.958 11.744-25zm-32.459 67.5h-17.46v-35h17.46c9.627 0 17.459 7.851 17.459 17.5s-7.832 17.5-17.459 17.5zm0-50h-17.46v-35h17.46c9.627 0 17.459 7.851 17.459 17.5s-7.832 17.5-17.459 17.5z"/><path d="m396.372 358.925c-4.143 0-7.5 3.358-7.5 7.5v28.5c0 4.142 3.357 7.5 7.5 7.5s7.5-3.358 7.5-7.5v-28.5c0-4.142-3.357-7.5-7.5-7.5z"/><path d="m396.372 422.162c-4.143 0-7.5 3.358-7.5 7.5 0 11.58-9.4 21-20.954 21-4.143 0-7.5 3.358-7.5 7.5s3.357 7.5 7.5 7.5c19.825 0 35.954-16.149 35.954-36 0-4.142-3.357-7.5-7.5-7.5z"/><path d="m233.471 450.662h-44.84c-4.142 0-7.5 3.358-7.5 7.5s3.358 7.5 7.5 7.5h44.84c4.142 0 7.5-3.358 7.5-7.5s-3.358-7.5-7.5-7.5z"/><path d="m323.151 450.662h-44.841c-4.143 0-7.5 3.358-7.5 7.5s3.357 7.5 7.5 7.5h44.841c4.143 0 7.5-3.358 7.5-7.5s-3.357-7.5-7.5-7.5z"/><path d="m144.082 450.662c-11.554 0-20.953-9.42-20.953-21 0-4.142-3.358-7.5-7.5-7.5s-7.5 3.358-7.5 7.5c0 19.851 16.129 36 35.954 36 4.142 0 7.5-3.358 7.5-7.5s-3.359-7.5-7.501-7.5z"/><path d="m115.628 402.425c4.142 0 7.5-3.358 7.5-7.5v-28.5c0-4.142-3.358-7.5-7.5-7.5s-7.5 3.358-7.5 7.5v28.5c0 4.142 3.358 7.5 7.5 7.5z"/></g></svg>